# xmcd CD database file
#
# Track frame offsets:
#	183
#	18525
#	62658
#	85008
#	111233
#	126158
#	152883
#	168655
#	200335
#	236970
#
# Disc length: 3517 seconds
#
# Revision: 0
# Processed by: cddbd v1.5.1PL0 Copyright (c) Steve Scherf et al.
# Submitted via: CDex 1.50beta10
#
DISCID=870dbb0a
DTITLE=Chet Baker/Enrico Pieranunzi - The Heart of the ballad
DYEAR=1900
DGENRE=Jazz
TTITLE0=But Beautiful 1
TTITLE1=But Beautiful 2
TTITLE2=But Beautiful 3
TTITLE3=My Old Flame
TTITLE4=The Thrill Is Gone
TTITLE5=Here's That Rainy Day
TTITLE6=If You Could See Me Now
TTITLE7=All The Way
TTITLE8=But Beautiful
TTITLE9=Darn The Dream
EXTD=
EXTT0=
EXTT1=
EXTT2=
EXTT3=
EXTT4=
EXTT5=
EXTT6=
EXTT7=
EXTT8=
EXTT9=
PLAYORDER=
